<svg aria-hidden="true" style="width:0;height:0;position:absolute;overflow:hidden" xmlns="http://www.w3.org/2000/svg"><defs><symbol id="icon-instagram1" viewBox="0 0 32 32"><path d="M27.2 1.6H4.8a3.21 3.21 0 0 0-3.2 3.2v22.4c0 1.762 1.44 3.2 3.2 3.2h22.4c1.76 0 3.2-1.438 3.2-3.2V4.8c0-1.76-1.44-3.2-3.2-3.2zM15.974 24.837a8.862 8.862 0 0 0 8.861-8.862c0-.541-.069-1.062-.165-1.574h2.53v11.546c0 .61-.494 1.104-1.104 1.104H5.904c-.61 0-1.104-.494-1.104-1.104V14.401h2.478a8.335 8.335 0 0 0-.166 1.574 8.864 8.864 0 0 0 8.862 8.862zm-5.537-8.863a5.538 5.538 0 1 1 5.539 5.538h-.002a5.538 5.538 0 0 1-5.538-5.538v-.002zM26.091 9.6h-2.584A1.11 1.11 0 0 1 22.4 8.493V5.906c0-.611.496-1.106 1.106-1.106h2.584c.614 0 1.11.494 1.11 1.106v2.586a1.11 1.11 0 0 1-1.109 1.109z"/></symbol><symbol id="icon-twitter" viewBox="0 0 32 32"><path d="M32 7.075A12.607 12.607 0 0 1 28.292 8.1l-.061.006a6.633 6.633 0 0 0 2.874-3.584l.013-.047a12.97 12.97 0 0 1-4.084 1.58l-.085.014A6.548 6.548 0 0 0 22.165 4h-.011.001a6.563 6.563 0 0 0-6.563 6.563c0 .512.056 1.012.169 1.494A18.621 18.621 0 0 1 2.256 5.228l-.026-.033a6.482 6.482 0 0 0-.887 3.294v.014a6.55 6.55 0 0 0 2.896 5.44l.023.015a6.55 6.55 0 0 1-3.008-.836l.033.017v.082a6.567 6.567 0 0 0 5.226 6.428l.043.007a6.624 6.624 0 0 1-3.01.105l.042.007c.867 2.627 3.272 4.501 6.124 4.563h.007a13.084 13.084 0 0 1-8.138 2.815 13.25 13.25 0 0 1-1.652-.103l.065.007C2.832 28.9 6.306 30 10.036 30h.028-.001c12.075 0 18.681-10.006 18.681-18.681 0-.287-.006-.569-.019-.85a13.337 13.337 0 0 0 3.245-3.347l.03-.047z"/></symbol><symbol id="icon-send" viewBox="0 0 24 24"><path d="M22.963 2.269a1.014 1.014 0 0 0-.354-1.063.99.99 0 0 0-.812-.185 1.122 1.122 0 0 0-.126.035l-.021.007L1.67 8.056a.999.999 0 0 0-.076 1.858l8.649 3.844 3.844 8.649a1 1 0 0 0 1.857-.076l6.993-19.979c.01-.027.019-.054.027-.082zm-12.184 9.538L4.711 9.111l13.483-4.72zm8.83-6.001-4.72 13.483-2.696-6.068z"/></symbol><symbol id="icon-google" viewBox="0 0 20 20"><path d="M1.989 5.589c0 1.494.499 2.572 1.482 3.205.806.52 1.74.598 2.226.598.118 0 .213-.006.279-.01 0 0-.154 1.004.59 1.996h-.034c-1.289 0-5.493.269-5.493 3.727 0 3.516 3.861 3.695 4.636 3.695.061 0 .097-.002.097-.002.008 0 .063.002.158.002.497 0 1.782-.062 2.975-.643 1.548-.75 2.333-2.059 2.333-3.885 0-1.764-1.196-2.814-2.069-3.582-.533-.469-.994-.873-.994-1.266 0-.4.337-.701.762-1.082.689-.615 1.339-1.492 1.339-3.15 0-1.457-.189-2.436-1.354-3.057.121-.062.551-.107.763-.137.631-.086 1.554-.184 1.554-.699V1.2H6.64c-.046.002-4.651.172-4.651 4.389zm7.424 9.013c.088 1.406-1.115 2.443-2.922 2.574-1.835.135-3.345-.691-3.433-2.096-.043-.676.254-1.336.835-1.863.589-.533 1.398-.863 2.278-.928.104-.006.207-.012.31-.012 1.699.001 2.849.999 2.932 2.325zM8.212 4.626c.451 1.588-.23 3.246-1.316 3.553a1.417 1.417 0 0 1-.384.052c-.994 0-1.979-1.006-2.345-2.393-.204-.776-.187-1.458.047-2.112.229-.645.643-1.078 1.163-1.225.125-.035.254-.053.385-.053 1.2 0 1.972.498 2.45 2.178zM16 8V5h-2v3h-3v2h3v3h2v-3h3V8h-3z"/></symbol><symbol id="icon-facebook" viewBox="0 0 32 32"><path d="M19 6h5V0h-5c-3.86 0-7 3.14-7 7v3H8v6h4v16h6V16h5l1-6h-6V7c0-.542.458-1 1-1z"/></symbol><symbol id="icon-pinterest" viewBox="0 0 32 32"><path d="M16 2.138c-7.656 0-13.863 6.206-13.863 13.863 0 5.875 3.656 10.887 8.813 12.906-.119-1.094-.231-2.781.05-3.975.25-1.081 1.625-6.887 1.625-6.887s-.412-.831-.412-2.056c0-1.925 1.119-3.369 2.506-3.369 1.181 0 1.756.887 1.756 1.95 0 1.188-.756 2.969-1.15 4.613-.331 1.381.688 2.506 2.05 2.506 2.462 0 4.356-2.6 4.356-6.35 0-3.319-2.387-5.638-5.787-5.638-3.944 0-6.256 2.956-6.256 6.019 0 1.194.456 2.469 1.031 3.163a.408.408 0 0 1 .094.4c-.106.438-.338 1.381-.387 1.575-.063.256-.2.306-.463.188-1.731-.806-2.813-3.337-2.813-5.369 0-4.375 3.175-8.387 9.156-8.387 4.806 0 8.544 3.425 8.544 8.006 0 4.775-3.012 8.625-7.194 8.625-1.406 0-2.725-.731-3.175-1.594 0 0-.694 2.644-.863 3.294-.313 1.206-1.156 2.712-1.725 3.631 1.3.4 2.675.619 4.106.619 7.656 0 13.863-6.206 13.863-13.863 0-7.662-6.206-13.869-13.863-13.869z"/></symbol></defs></svg>