<svg aria-hidden="true" style="position: absolute; width: 0; height: 0; overflow: hidden;" version="1.1" xmlns="http://www.w3.org/2000/svg" xmlns:xlink="http://www.w3.org/1999/xlink">
<defs>
<symbol id="icon-instagram1" viewBox="0 0 32 32">
<path d="M27.2 1.6h-22.4c-1.76 0-3.2 1.44-3.2 3.2v22.4c0 1.762 1.44 3.2 3.2 3.2h22.4c1.76 0 3.2-1.438 3.2-3.2v-22.4c0-1.76-1.44-3.2-3.2-3.2zM15.974 24.837c4.894-0.001 8.861-3.968 8.861-8.862v0c0-0.541-0.069-1.062-0.165-1.574h2.53v11.546c0 0 0 0 0 0 0 0.61-0.494 1.104-1.104 1.104-0.002 0-0.003 0-0.005 0h-20.182c-0.001 0-0.003 0-0.005 0-0.61 0-1.104-0.494-1.104-1.104 0 0 0 0 0 0v0-11.546h2.478c-0.098 0.512-0.166 1.034-0.166 1.574 0.001 4.894 3.968 8.861 8.862 8.862h0zM10.437 15.974c0-3.059 2.48-5.538 5.539-5.538s5.538 2.48 5.538 5.538-2.48 5.538-5.538 5.538v0c-0 0-0.001 0-0.002 0-3.058 0-5.538-2.479-5.538-5.538 0-0.001 0-0.001 0-0.002v0zM26.091 9.6h-2.584c-0.611-0.002-1.105-0.496-1.107-1.107v-2.587c0-0.611 0.496-1.106 1.106-1.106h2.584c0.614 0 1.11 0.494 1.11 1.106v2.586c0 0.61-0.496 1.109-1.109 1.109z"></path>
</symbol>
<symbol id="icon-twitter" viewBox="0 0 32 32">
<path d="M32 7.075c-1.098 0.502-2.371 0.865-3.708 1.025l-0.061 0.006c1.357-0.823 2.377-2.084 2.874-3.584l0.013-0.047c-1.2 0.724-2.597 1.277-4.084 1.58l-0.085 0.014c-1.2-1.275-2.899-2.069-4.784-2.069-0.004 0-0.007 0-0.011 0h0.001c-3.625 0-6.563 2.938-6.563 6.563v0c0 0.512 0.056 1.012 0.169 1.494-5.469-0.282-10.28-2.882-13.505-6.829l-0.026-0.033c-0.558 0.944-0.887 2.081-0.887 3.294 0 0.002 0 0.004 0 0.006v-0c0 0.002 0 0.005 0 0.008 0 2.265 1.149 4.262 2.896 5.44l0.023 0.015c-1.097-0.036-2.117-0.335-3.008-0.836l0.033 0.017v0.081c0 0 0 0.001 0 0.001 0 3.167 2.243 5.81 5.226 6.428l0.043 0.007c-0.517 0.146-1.112 0.23-1.726 0.23-0.439 0-0.869-0.043-1.284-0.125l0.042 0.007c0.867 2.627 3.272 4.501 6.124 4.563l0.007 0c-2.217 1.755-5.053 2.815-8.138 2.815-0.559 0-1.111-0.035-1.652-0.103l0.065 0.007c2.838 1.85 6.312 2.95 10.042 2.95 0.009 0 0.019 0 0.028-0h-0.001c12.075 0 18.681-10.006 18.681-18.681 0-0.287-0.006-0.569-0.019-0.85 1.291-0.937 2.378-2.061 3.245-3.347l0.030-0.047z"></path>
</symbol>
<symbol id="icon-send" viewBox="0 0 24 24">
<path d="M22.963 2.269c0.043-0.151 0.050-0.314 0.015-0.476-0.024-0.113-0.068-0.224-0.131-0.325-0.064-0.102-0.145-0.19-0.238-0.262-0.117-0.090-0.249-0.15-0.386-0.181s-0.282-0.034-0.426-0.004c-0.042 0.009-0.085 0.021-0.126 0.035l-0.021 0.007-19.98 6.993c-0.252 0.088-0.467 0.276-0.584 0.538-0.224 0.505 0.003 1.096 0.508 1.32l8.649 3.844 3.844 8.649c0.108 0.243 0.313 0.443 0.583 0.538 0.521 0.182 1.092-0.092 1.274-0.614l6.993-19.979c0.010-0.027 0.019-0.054 0.027-0.082zM10.779 11.807l-6.068-2.696 13.483-4.72zM19.609 5.806l-4.72 13.483-2.696-6.068z"></path>
</symbol>
<symbol id="icon-google" viewBox="0 0 20 20">
<path d="M1.989 5.589c0 1.494 0.499 2.572 1.482 3.205 0.806 0.52 1.74 0.598 2.226 0.598 0.118 0 0.213-0.006 0.279-0.010 0 0-0.154 1.004 0.59 1.996h-0.034c-1.289 0-5.493 0.269-5.493 3.727 0 3.516 3.861 3.695 4.636 3.695 0.061 0 0.097-0.002 0.097-0.002 0.008 0 0.063 0.002 0.158 0.002 0.497 0 1.782-0.062 2.975-0.643 1.548-0.75 2.333-2.059 2.333-3.885 0-1.764-1.196-2.814-2.069-3.582-0.533-0.469-0.994-0.873-0.994-1.266 0-0.4 0.337-0.701 0.762-1.082 0.689-0.615 1.339-1.492 1.339-3.15 0-1.457-0.189-2.436-1.354-3.057 0.121-0.062 0.551-0.107 0.763-0.137 0.631-0.086 1.554-0.184 1.554-0.699v-0.099h-4.599c-0.046 0.002-4.651 0.172-4.651 4.389zM9.413 14.602c0.088 1.406-1.115 2.443-2.922 2.574-1.835 0.135-3.345-0.691-3.433-2.096-0.043-0.676 0.254-1.336 0.835-1.863 0.589-0.533 1.398-0.863 2.278-0.928 0.104-0.006 0.207-0.012 0.31-0.012 1.699 0.001 2.849 0.999 2.932 2.325zM8.212 4.626c0.451 1.588-0.23 3.246-1.316 3.553-0.125 0.035-0.253 0.052-0.384 0.052-0.994 0-1.979-1.006-2.345-2.393-0.204-0.776-0.187-1.458 0.047-2.112 0.229-0.645 0.643-1.078 1.163-1.225 0.125-0.035 0.254-0.053 0.385-0.053 1.2 0 1.972 0.498 2.45 2.178zM16 8v-3h-2v3h-3v2h3v3h2v-3h3v-2h-3z"></path>
</symbol>
<symbol id="icon-facebook" viewBox="0 0 32 32">
<path d="M19 6h5v-6h-5c-3.86 0-7 3.14-7 7v3h-4v6h4v16h6v-16h5l1-6h-6v-3c0-0.542 0.458-1 1-1z"></path>
</symbol>
<symbol id="icon-pinterest" viewBox="0 0 32 32">
<path d="M16 2.138c-7.656 0-13.863 6.206-13.863 13.863 0 5.875 3.656 10.887 8.813 12.906-0.119-1.094-0.231-2.781 0.050-3.975 0.25-1.081 1.625-6.887 1.625-6.887s-0.412-0.831-0.412-2.056c0-1.925 1.119-3.369 2.506-3.369 1.181 0 1.756 0.887 1.756 1.95 0 1.188-0.756 2.969-1.15 4.613-0.331 1.381 0.688 2.506 2.050 2.506 2.462 0 4.356-2.6 4.356-6.35 0-3.319-2.387-5.638-5.787-5.638-3.944 0-6.256 2.956-6.256 6.019 0 1.194 0.456 2.469 1.031 3.163 0.113 0.137 0.131 0.256 0.094 0.4-0.106 0.438-0.338 1.381-0.387 1.575-0.063 0.256-0.2 0.306-0.463 0.188-1.731-0.806-2.813-3.337-2.813-5.369 0-4.375 3.175-8.387 9.156-8.387 4.806 0 8.544 3.425 8.544 8.006 0 4.775-3.012 8.625-7.194 8.625-1.406 0-2.725-0.731-3.175-1.594 0 0-0.694 2.644-0.863 3.294-0.313 1.206-1.156 2.712-1.725 3.631 1.3 0.4 2.675 0.619 4.106 0.619 7.656 0 13.863-6.206 13.863-13.863 0-7.662-6.206-13.869-13.863-13.869z"></path>
</symbol>
</defs>
</svg>
